# 3ds Max Wavefront OBJ Exporter v0.99 - (c)2007 guruware
# File Created: 20.04.2025 16:27:42

mtllib bota_der.mtl

#
# object bota_der
#

v  -0.1803 -0.2093 -0.2961
v  0.0005 -0.0266 -0.3779
v  0.0005 -0.2098 -0.3780
v  -0.1803 -0.0425 -0.2961
v  -0.2552 -0.1897 -0.0984
v  -0.2552 -0.0523 -0.0983
v  -0.1803 -0.1036 0.0994
v  -0.1803 -0.0056 0.1048
v  0.0005 -0.0835 0.1813
v  0.0005 0.0179 0.1867
v  0.1813 -0.1036 0.0994
v  0.1813 -0.0056 0.1048
v  0.2563 -0.1897 -0.0983
v  0.2563 -0.0523 -0.0983
v  0.1814 -0.2098 -0.2960
v  0.1814 -0.0427 -0.2960
v  -0.2712 -0.2406 -0.1028
v  -0.1880 -0.2665 -0.3203
v  -0.1880 -0.1554 0.1249
v  -0.0000 -0.1320 0.2184
v  0.1880 -0.1554 0.1249
v  0.2712 -0.2406 -0.1028
v  0.1880 -0.2675 -0.3203
v  0.1814 0.3193 -0.2960
v  0.2563 0.3193 -0.0983
v  0.2395 0.3498 -0.0983
v  0.1695 0.3498 0.0900
v  0.1695 0.3499 -0.2866
v  0.0005 0.3193 -0.3779
v  -0.1803 0.3193 -0.2960
v  -0.1803 -0.2047 0.0994
v  -0.2624 -0.3498 -0.0984
v  0.0005 -0.1841 0.1813
v  0.1813 0.3193 0.0994
v  0.0005 0.3498 0.1680
v  -0.1685 0.3499 -0.2866
v  0.0005 0.3499 -0.3646
v  -0.2552 0.3193 -0.0983
v  -0.2317 0.3498 -0.0983
v  -0.1803 0.3193 0.0994
v  -0.1685 0.3498 0.0900
v  0.0005 0.3193 0.1813
v  0.1813 -0.2047 0.0994
v  0.2563 -0.3498 -0.0983
v  0.1814 -0.3498 -0.2961
v  -0.1803 -0.3498 -0.2961
v  0.0005 -0.3498 -0.3780
v  -0.2678 -0.3498 0.0322
v  0.2581 -0.3498 0.0333
v  -0.2405 -0.3498 0.1788
v  0.2415 -0.3498 0.1789
v  -0.1906 -0.3498 0.2867
v  0.1916 -0.3498 0.2867
v  -0.1160 -0.3499 0.3725
v  0.1171 -0.3499 0.3725
v  0.0005 -0.3499 0.4104
v  0.1848 -0.2606 0.1615
v  0.0005 -0.2364 0.2456
v  -0.1839 -0.2606 0.1615
v  0.0000 -0.2675 -0.4104
v  -0.1890 -0.3292 0.2737
v  -0.1874 -0.2990 0.2154
v  -0.1110 -0.3163 0.3515
v  -0.1156 -0.2835 0.2684
v  0.0005 -0.3108 0.3809
v  0.0005 -0.2770 0.3161
v  0.1121 -0.3163 0.3515
v  0.1168 -0.2835 0.2684
v  0.1884 -0.2990 0.2155
v  0.1900 -0.3292 0.2737
# 70 vertices

vn -0.7260 0.1948 -0.6595
vn 0.0001 0.0000 -1.0000
vn -0.0032 0.2682 -0.9634
vn -0.7290 0.0000 -0.6845
vn -0.9846 0.1712 -0.0346
vn -1.0000 -0.0015 -0.0023
vn -0.7744 0.1761 0.6077
vn -0.7259 -0.0147 0.6876
vn 0.0107 0.2946 0.9556
vn 0.0002 -0.0152 0.9999
vn 0.7676 0.1635 0.6198
vn 0.7255 -0.0119 0.6882
vn 0.9867 0.1584 -0.0353
vn 1.0000 0.0008 -0.0037
vn 0.7331 0.1869 -0.6539
vn 0.7291 0.0000 -0.6844
vn -0.9958 0.0900 -0.0146
vn -0.6989 0.0565 -0.7130
vn -0.7079 -0.0151 0.7062
vn 0.0061 0.0436 0.9990
vn 0.6927 0.0006 0.7212
vn 0.9977 0.0609 -0.0309
vn 0.7051 0.0400 -0.7080
vn 0.7148 0.2170 -0.6648
vn 0.9720 0.2348 -0.0010
vn 0.8777 0.4792 -0.0027
vn 0.6495 0.4440 0.6173
vn 0.6504 0.4407 -0.6187
vn 0.0013 0.1953 -0.9807
vn -0.7150 0.2151 -0.6652
vn -0.8104 0.0021 0.5859
vn -0.7527 -0.6581 -0.0187
vn 0.0055 0.1148 0.9934
vn 0.7160 0.2195 0.6627
vn -0.0034 0.4017 0.9158
vn -0.6475 0.4521 -0.6135
vn 0.0034 0.4018 -0.9157
vn -0.9543 0.2989 0.0048
vn -0.7972 0.6035 0.0161
vn -0.7180 0.2272 0.6579
vn -0.6611 0.4412 0.6069
vn -0.0012 0.2037 0.9790
vn 0.7589 0.0024 0.6512
vn 0.7308 -0.6818 -0.0339
vn 0.5292 -0.7189 -0.4507
vn -0.5129 -0.7281 -0.4548
vn 0.0074 -0.7583 -0.6519
vn -0.9256 -0.3777 0.0245
vn 0.8647 -0.4993 0.0536
vn -0.8888 -0.4021 0.2201
vn 0.8677 -0.4415 0.2285
vn -0.7000 -0.5196 0.4899
vn 0.6981 -0.5168 0.4955
vn -0.4731 -0.4362 0.7655
vn 0.4692 -0.4322 0.7701
vn 0.0067 -0.3895 0.9210
vn 0.6506 0.6421 0.4055
vn 0.0211 0.8380 0.5452
vn -0.6830 0.6162 0.3921
vn -0.0009 0.0612 -0.9981
vn -0.7085 0.5563 0.4343
vn -0.6616 0.6649 0.3468
vn -0.3923 0.7156 0.5779
vn -0.3330 0.8568 0.3936
vn -0.0035 0.7527 0.6583
vn -0.0079 0.8889 0.4580
vn 0.4054 0.7026 0.5848
vn 0.3146 0.8784 0.3599
vn 0.6413 0.6643 0.3840
vn 0.6973 0.5690 0.4359
# 70 vertex normals

vt 0.2578 0.1641 0.0000
vt 0.2852 0.3203 0.0000
vt 0.2852 0.1641 0.0000
vt 0.2578 0.3047 0.0000
vt 0.1875 0.1797 0.0000
vt 0.1875 0.2969 0.0000
vt 0.1211 0.2539 0.0000
vt 0.1172 0.3359 0.0000
vt 0.0938 0.2695 0.0000
vt 0.0898 0.3555 0.0000
vt 0.1914 0.1367 0.0000
vt 0.2656 0.1172 0.0000
vt 0.1133 0.2109 0.0000
vt 0.0820 0.2305 0.0000
vt 0.2656 0.1133 0.0000
vt 0.2578 0.5703 0.0000
vt 0.1875 0.5703 0.0000
vt 0.1875 0.6367 0.0000
vt 0.1250 0.6367 0.0000
vt 0.2539 0.6367 0.0000
vt 0.2852 0.5703 0.0000
vt 0.1211 0.1680 0.0000
vt 0.1875 0.0117 0.0000
vt 0.0938 0.1836 0.0000
vt 0.1211 0.5703 0.0000
vt 0.0977 0.6367 0.0000
vt 0.2812 0.6367 0.0000
vt 0.0938 0.5703 0.0000
vt 0.2578 0.0117 0.0000
vt 0.2852 0.0117 0.0000
vt 0.1445 0.0117 0.0000
vt 0.0938 0.0117 0.0000
vt 0.0586 0.0117 0.0000
vt 0.0273 0.0117 0.0000
vt 0.0156 0.0117 0.0000
vt 0.1016 0.1211 0.0000
vt 0.0703 0.1406 0.0000
vt 0.2969 0.1133 0.0000
vt 0.0625 0.0625 0.0000
vt 0.0820 0.0859 0.0000
vt 0.0352 0.0742 0.0000
vt 0.0625 0.1016 0.0000
vt 0.0234 0.0781 0.0000
vt 0.0469 0.1055 0.0000
# 44 texture coords

o bota_der
g bota_der
usemtl link_Material_001
s 1
f 1/1/1 2/2/2 3/3/3 
f 2/2/2 1/1/1 4/4/4 
f 5/5/5 4/4/4 1/1/1 
f 4/4/4 5/5/5 6/6/6 
f 7/7/7 6/6/6 5/5/5 
f 6/6/6 7/7/7 8/8/8 
f 9/9/9 8/8/8 7/7/7 
f 8/8/8 9/9/9 10/10/10 
f 11/7/11 10/10/10 9/9/9 
f 10/10/10 11/7/11 12/8/12 
f 13/5/13 12/8/12 11/7/11 
f 12/8/12 13/5/13 14/6/14 
f 15/1/15 14/6/14 13/5/13 
f 14/6/14 15/1/15 16/4/16 
f 17/11/17 1/1/1 18/12/18 
f 1/1/1 17/11/17 5/5/5 
f 19/13/19 5/5/5 17/11/17 
f 5/5/5 19/13/19 7/7/7 
f 20/14/20 7/7/7 19/13/19 
f 7/7/7 20/14/20 9/9/9 
f 21/13/21 9/9/9 20/14/20 
f 9/9/9 21/13/21 11/7/11 
f 22/11/22 11/7/11 21/13/21 
f 11/7/11 22/11/22 13/5/13 
f 23/15/23 13/5/13 22/11/22 
f 13/5/13 23/15/23 15/1/15 
f 2/2/2 15/1/15 3/3/3 
f 15/1/15 2/2/2 16/4/16 
f 24/16/24 16/4/16 2/2/2 
f 16/4/16 24/16/24 25/17/25 
f 26/18/26 25/17/25 24/16/24 
f 25/17/25 26/18/26 27/19/27 
f 24/16/24 28/20/28 26/18/26 
f 28/20/28 24/16/24 29/21/29 
f 2/2/2 29/21/29 24/16/24 
f 29/21/29 2/2/2 30/16/30 
f 4/4/4 30/16/30 2/2/2 
f 30/16/30 4/4/4 6/6/6 
f 31/22/31 17/11/17 32/23/32 
f 17/11/17 31/22/31 19/13/19 
f 33/24/33 19/13/19 31/22/31 
f 19/13/19 33/24/33 20/14/20 
f 21/13/21 20/14/20 33/24/33 
f 25/17/25 14/6/14 16/4/16 
f 14/6/14 25/17/25 34/25/34 
f 27/19/27 34/25/34 25/17/25 
f 34/25/34 27/19/27 35/26/35 
f 30/16/30 36/20/36 37/27/37 
f 36/20/36 30/16/30 38/17/38 
f 6/6/6 38/17/38 30/16/30 
f 38/17/38 6/6/6 8/8/8 
f 38/17/38 39/18/39 36/20/36 
f 39/18/39 38/17/38 40/25/40 
f 8/8/8 40/25/40 38/17/38 
f 40/25/40 8/8/8 10/10/10 
f 40/25/40 41/19/41 39/18/39 
f 41/19/41 40/25/40 42/28/42 
f 10/10/10 42/28/42 40/25/40 
f 42/28/42 10/10/10 12/8/12 
f 42/28/42 35/26/35 41/19/41 
f 35/26/35 42/28/42 34/25/34 
f 12/8/12 34/25/34 42/28/42 
f 34/25/34 12/8/12 14/6/14 
f 43/22/43 21/13/21 33/24/33 
f 21/13/21 43/22/43 44/23/44 
f 29/21/29 37/27/37 28/20/28 
f 37/27/37 29/21/29 30/16/30 
f 44/23/44 22/11/22 21/13/21 
f 45/29/45 46/29/46 47/30/47 
f 46/29/46 45/29/45 32/23/32 
f 44/23/44 32/23/32 45/29/45 
f 32/23/32 44/23/44 48/31/48 
f 49/31/49 48/31/48 44/23/44 
f 48/31/48 49/31/49 50/32/50 
f 51/32/51 50/32/50 49/31/49 
f 50/32/50 51/32/51 52/33/52 
f 53/33/53 52/33/52 51/32/51 
f 52/33/52 53/33/53 54/34/54 
f 55/34/55 54/34/54 53/33/53 
f 54/34/54 55/34/55 56/35/56 
f 43/22/43 49/31/49 44/23/44 
f 49/31/49 43/22/43 57/36/57 
f 33/24/33 57/36/57 43/22/43 
f 57/36/57 33/24/33 58/37/58 
f 31/22/31 58/37/58 33/24/33 
f 58/37/58 31/22/31 59/36/59 
f 32/23/32 59/36/59 31/22/31 
f 59/36/59 32/23/32 48/31/48 
f 18/12/18 32/23/32 17/11/17 
f 32/23/32 18/12/18 46/29/46 
f 60/38/60 46/29/46 18/12/18 
f 46/29/46 60/38/60 47/30/47 
f 23/15/23 47/30/47 60/38/60 
f 47/30/47 23/15/23 45/29/45 
f 22/11/22 45/29/45 23/15/23 
f 45/29/45 22/11/22 44/23/44 
f 61/39/61 50/32/50 52/33/52 
f 50/32/50 61/39/61 62/40/62 
f 63/41/63 62/40/62 61/39/61 
f 62/40/62 63/41/63 64/42/64 
f 65/43/65 64/42/64 63/41/63 
f 64/42/64 65/43/65 66/44/66 
f 67/41/67 66/44/66 65/43/65 
f 66/44/66 67/41/67 68/42/68 
f 57/36/57 51/32/51 49/31/49 
f 51/32/51 57/36/57 69/40/69 
f 68/42/68 69/40/69 57/36/57 
f 69/40/69 68/42/68 70/39/70 
f 67/41/67 70/39/70 68/42/68 
f 70/39/70 67/41/67 53/33/53 
f 55/34/55 53/33/53 67/41/67 
f 62/40/62 48/31/48 50/32/50 
f 48/31/48 62/40/62 59/36/59 
f 64/42/64 59/36/59 62/40/62 
f 59/36/59 64/42/64 58/37/58 
f 66/44/66 58/37/58 64/42/64 
f 58/37/58 66/44/66 57/36/57 
f 68/42/68 57/36/57 66/44/66 
f 65/43/65 55/34/55 67/41/67 
f 55/34/55 65/43/65 56/35/56 
f 63/41/63 56/35/56 65/43/65 
f 56/35/56 63/41/63 54/34/54 
f 61/39/61 54/34/54 63/41/63 
f 54/34/54 61/39/61 52/33/52 
f 3/3/3 18/12/18 1/1/1 
f 18/12/18 3/3/3 60/38/60 
f 15/1/15 60/38/60 3/3/3 
f 60/38/60 15/1/15 23/15/23 
f 70/39/70 51/32/51 69/40/69 
f 51/32/51 70/39/70 53/33/53 
# 130 faces

