# 3ds Max Wavefront OBJ Exporter v0.99 - (c)2007 guruware
# File Created: 20.04.2025 16:30:44

mtllib piernas.mtl

#
# object piernas
#

v  0.1231 -0.2850 -0.0249
v  0.2387 -0.3342 0.2359
v  0.1896 -0.2054 0.2709
v  0.1663 -0.3374 -0.0262
v  0.2387 -0.3341 -0.2844
v  0.1765 -0.2325 -0.3114
v  0.0881 -0.1881 -0.3055
v  0.1321 0.0046 -0.5251
v  0.0694 -0.2466 -0.0247
v  0.5960 -0.0235 0.2445
v  0.4199 -0.3341 0.3233
v  0.5986 -0.3332 0.2321
v  0.3704 0.1933 0.4194
v  0.4200 -0.3341 -0.3717
v  0.4001 -0.1774 -0.4325
v  0.5987 -0.3331 -0.2831
v  0.3709 0.0238 -0.4390
v  0.5992 -0.7119 0.1757
v  0.6916 -0.3386 -0.0255
v  0.6747 -0.7119 -0.0367
v  0.6749 -0.8231 -0.0506
v  0.5993 -0.7118 -0.2373
v  0.6118 -0.7726 -0.2334
v  0.4381 -0.7133 -0.3123
v  0.4428 -0.7653 -0.3115
v  0.2738 -0.7726 -0.2335
v  0.4428 -0.9053 -0.3216
v  0.2793 -0.9144 -0.2436
v  0.4380 -0.7134 0.2518
v  0.2760 -0.7119 0.1774
v  0.2875 -0.8231 0.1686
v  0.2140 -0.8231 -0.0506
v  0.2793 -0.9258 0.1509
v  0.2079 -0.9258 -0.0504
v  0.2738 -1.0286 0.1186
v  0.2038 -1.0286 -0.0698
v  0.6818 -0.9258 -0.0503
v  0.6118 -0.9258 0.1510
v  0.6118 -0.8231 0.1686
v  0.4428 -0.9259 0.2290
v  0.4428 -0.8231 0.2466
v  0.2102 -0.7106 -0.0370
v  0.2760 -0.7118 -0.2379
v  0.6118 -0.9144 -0.2435
v  0.6118 -1.0286 -0.2580
v  0.6750 -1.0286 -0.0697
v  0.4428 -1.0286 0.1966
v  0.2738 -1.0286 -0.2581
v  0.6118 -1.0286 0.1186
v  -0.4200 -0.3341 0.3232
v  -0.5960 -0.0235 0.2444
v  -0.5987 -0.3332 0.2319
v  -0.3705 0.1933 0.4193
v  -0.1897 -0.2054 0.2708
v  -0.1104 -0.1341 0.3097
v  -0.1231 -0.2850 -0.0250
v  -0.0694 -0.2466 -0.0247
v  -0.0880 -0.1881 -0.3055
v  -0.0000 -0.2506 -0.0231
v  0.0000 -0.1795 -0.3032
v  -0.1507 0.1161 0.4970
v  -0.0001 0.0947 0.5251
v  -0.0000 -0.1224 0.4211
v  0.1506 0.1161 0.4970
v  0.1104 -0.1341 0.3097
v  0.0000 0.0046 -0.5245
v  -0.1320 0.0046 -0.5251
v  -0.1765 -0.2325 -0.3114
v  -0.4000 -0.1774 -0.4326
v  -0.4199 -0.3341 -0.3718
v  -0.5986 -0.3331 -0.2832
v  -0.3708 0.0238 -0.4391
v  -0.2387 -0.3341 -0.2844
v  -0.1663 -0.3374 -0.0262
v  -0.2387 -0.3342 0.2359
v  -0.2102 -0.7106 -0.0370
v  -0.2738 -0.7726 -0.2335
v  -0.2760 -0.7118 -0.2380
v  -0.2140 -0.8231 -0.0507
v  -0.2760 -0.7119 0.1773
v  -0.2875 -0.8231 0.1685
v  -0.4381 -0.7134 0.2517
v  -0.4428 -0.8231 0.2465
v  -0.6118 -0.8231 0.1685
v  -0.4428 -0.9259 0.2289
v  -0.6118 -0.9258 0.1509
v  -0.4428 -1.0286 0.1965
v  -0.6118 -1.0286 0.1185
v  -0.4380 -0.7133 -0.3124
v  -0.4428 -0.7653 -0.3115
v  -0.4428 -0.9053 -0.3216
v  -0.6118 -0.9144 -0.2437
v  -0.5993 -0.7119 0.1756
v  -0.6749 -0.8231 -0.0507
v  -0.6747 -0.7119 -0.0368
v  -0.5992 -0.7118 -0.2374
v  -0.6818 -0.9258 -0.0504
v  -0.6118 -0.7726 -0.2336
v  -0.6916 -0.3386 -0.0256
v  -0.2793 -0.9258 0.1509
v  -0.2738 -1.0286 0.1185
v  -0.2079 -0.9258 -0.0504
v  -0.2038 -1.0286 -0.0698
v  -0.2792 -0.9144 -0.2436
v  -0.2738 -1.0286 -0.2581
v  -0.6118 -1.0286 -0.2581
v  -0.6750 -1.0286 -0.0698
v  -0.4428 -1.0286 -0.3361
v  0.4428 -1.0286 -0.3360
# 109 vertices

vn -0.7323 -0.6765 -0.0778
vn -0.6948 -0.2816 0.6618
vn -0.4072 -0.3805 0.8303
vn -0.9112 -0.4119 0.0008
vn -0.6822 -0.3573 -0.6379
vn -0.4472 -0.6453 -0.6194
vn -0.2681 -0.8434 -0.4657
vn 0.0866 -0.7050 -0.7039
vn -0.2743 -0.9606 0.0449
vn 0.5248 -0.0824 0.8473
vn 0.0330 -0.1596 0.9866
vn 0.6405 -0.0769 0.7641
vn 0.2923 -0.3601 0.8859
vn 0.0212 -0.2633 -0.9645
vn -0.2777 -0.2545 -0.9264
vn 0.6811 -0.1189 -0.7225
vn -0.0249 -0.4303 -0.9024
vn 0.7483 -0.0413 0.6621
vn 0.9990 -0.0441 0.0055
vn 0.9997 -0.0245 0.0025
vn 0.9989 0.0445 -0.0166
vn 0.7330 0.0013 -0.6802
vn 0.7661 0.0940 -0.6358
vn -0.0009 -0.0846 -0.9964
vn 0.0130 0.0281 -0.9995
vn -0.7582 0.0069 -0.6520
vn -0.0025 0.0678 -0.9977
vn -0.8224 0.0451 -0.5672
vn -0.0001 -0.1225 0.9925
vn -0.7504 -0.1459 0.6446
vn -0.7313 -0.0937 0.6756
vn -0.9999 0.0103 -0.0052
vn -0.7354 -0.1133 0.6681
vn -0.9991 0.0355 0.0245
vn -0.7727 -0.1481 0.6173
vn -0.9980 0.0473 -0.0408
vn 0.9998 -0.0019 0.0197
vn 0.7348 -0.1519 0.6611
vn 0.7591 -0.0341 0.6501
vn -0.0100 -0.2282 0.9736
vn -0.0100 -0.1069 0.9942
vn -0.9967 -0.0813 0.0035
vn -0.7403 -0.0917 -0.6660
vn 0.8261 0.0470 -0.5615
vn 0.9428 0.0291 -0.3320
vn 0.9975 -0.0590 -0.0383
vn -0.0046 -0.2971 0.9548
vn -0.9349 0.0924 -0.3426
vn 0.7657 -0.1968 0.6123
vn -0.0533 -0.1754 0.9830
vn -0.5249 -0.0824 0.8471
vn -0.6406 -0.0769 0.7640
vn -0.2943 -0.3510 0.8889
vn 0.4682 -0.5252 0.7106
vn -0.1436 -0.7507 0.6449
vn 0.6749 -0.7360 0.0522
vn 0.2677 -0.9618 0.0572
vn 0.2601 -0.8424 -0.4718
vn 0.0130 -0.9993 0.0362
vn 0.0123 -0.8897 -0.4564
vn -0.3491 -0.5970 0.7223
vn -0.0689 -0.5068 0.8593
vn -0.0737 -0.7061 0.7042
vn 0.4036 -0.5367 0.7410
vn 0.1443 -0.7746 0.6158
vn -0.3304 -0.7077 0.6245
vn 0.0084 -0.7618 -0.6477
vn -0.0947 -0.6979 -0.7099
vn 0.4494 -0.6437 -0.6194
vn 0.2718 -0.2467 -0.9302
vn -0.0265 -0.2683 -0.9630
vn -0.6834 -0.1147 -0.7210
vn 0.0251 -0.4303 -0.9024
vn 0.6903 -0.3675 -0.6232
vn 0.9211 -0.3888 0.0193
vn -0.5469 -0.7708 0.3268
vn 0.7211 -0.3113 0.6190
vn 0.9967 -0.0813 0.0037
vn 0.7611 0.0015 -0.6486
vn 0.7395 -0.0900 -0.6671
vn 0.9999 0.0023 -0.0163
vn 0.7503 -0.1459 0.6448
vn 0.7311 -0.0937 0.6758
vn 0.0098 -0.1069 0.9942
vn -0.7592 -0.0341 0.6499
vn 0.0098 -0.2282 0.9736
vn -0.7349 -0.1519 0.6610
vn 0.0044 -0.2971 0.9548
vn -0.7658 -0.1968 0.6122
vn 0.0045 -0.0857 -0.9963
vn -0.0129 0.0280 -0.9995
vn 0.0045 0.0922 -0.9957
vn -0.7400 0.0657 -0.6693
vn -0.7484 -0.0413 0.6619
vn -0.9989 0.0445 -0.0168
vn -0.9997 -0.0245 0.0023
vn -0.7342 -0.0008 -0.6789
vn -0.9998 -0.0019 0.0195
vn -0.7659 0.0939 -0.6360
vn -0.9990 -0.0441 0.0053
vn 0.7353 -0.1133 0.6682
vn 0.7726 -0.1481 0.6174
vn 0.9989 0.0423 0.0183
vn 0.9981 0.0473 -0.0406
vn 0.7399 0.0728 -0.6688
vn 0.7201 0.1233 -0.6828
vn -0.7218 0.0805 -0.6874
vn -0.9975 -0.0590 -0.0385
vn 0.0039 0.1239 -0.9923
vn -0.0038 0.1239 -0.9923
vn 0.4183 0.1112 -0.9015
vn 0.4164 0.1145 -0.9020
vn -0.0063 0.1167 -0.9931
vn -0.4218 0.1233 -0.8983
vn -0.4152 0.1341 -0.8998
# 115 vertex normals

vt 0.3867 0.4453 0.0000
vt 0.3750 0.4336 0.0000
vt 0.3750 0.4688 0.0000
vt 0.3867 0.4297 0.0000
vt 0.3984 0.4336 0.0000
vt 0.4023 0.4609 0.0000
vt 0.4023 0.4727 0.0000
vt 0.4102 0.5273 0.0000
vt 0.3867 0.4570 0.0000
vt 0.3750 0.5195 0.0000
vt 0.3711 0.4336 0.0000
vt 0.3672 0.5820 0.0000
vt 0.4023 0.4336 0.0000
vt 0.4062 0.4766 0.0000
vt 0.4062 0.5352 0.0000
vt 0.3789 0.3594 0.0000
vt 0.3867 0.3594 0.0000
vt 0.3906 0.2461 0.0000
vt 0.3984 0.3594 0.0000
vt 0.3984 0.2695 0.0000
vt 0.4023 0.3594 0.0000
vt 0.4023 0.2695 0.0000
vt 0.4023 0.1406 0.0000
vt 0.3984 0.1367 0.0000
vt 0.3750 0.3594 0.0000
vt 0.3789 0.2461 0.0000
vt 0.3789 0.1328 0.0000
vt 0.3906 0.1328 0.0000
vt 0.3828 0.0195 0.0000
vt 0.3906 0.0195 0.0000
vt 0.3750 0.1328 0.0000
vt 0.3750 0.2461 0.0000
vt 0.3984 0.0195 0.0000
vt 0.3789 0.0195 0.0000
vt 0.3711 0.4883 0.0000
vt 0.4023 0.4766 0.0000
vt 0.3633 0.5625 0.0000
vt 0.3633 0.5547 0.0000
vt 0.3672 0.4922 0.0000
vt 0.4023 0.0195 0.0000
# 40 texture coords

o piernas
g piernas
usemtl link_Material_001
s 1
f 1/1/1 2/2/2 3/3/3 
f 2/2/2 1/1/1 4/4/4 
f 4/4/4 1/1/1 5/5/5 
f 6/6/6 7/7/7 8/8/8 
f 7/7/7 6/6/6 9/9/9 
f 1/1/1 9/9/9 6/6/6 
f 10/10/10 11/11/11 12/2/12 
f 11/11/11 10/10/10 13/12/13 
f 14/13/14 15/14/15 16/5/16 
f 15/14/15 14/13/14 5/5/5 
f 13/12/13 2/2/2 11/11/11 
f 2/2/2 13/12/13 3/3/3 
f 17/15/17 6/6/6 8/8/8 
f 6/6/6 17/15/17 15/14/15 
f 5/5/5 6/6/6 15/14/15 
f 5/5/5 1/1/1 6/6/6 
f 18/16/18 19/4/19 12/2/12 
f 19/4/19 18/16/18 20/17/20 
f 21/18/21 20/17/20 18/16/18 
f 20/17/20 21/18/21 22/19/22 
f 23/20/23 22/19/22 21/18/21 
f 22/19/22 23/20/23 24/21/24 
f 25/22/25 24/21/24 23/20/23 
f 24/21/24 25/22/25 26/20/26 
f 27/23/27 26/20/26 25/22/25 
f 26/20/26 27/23/27 28/24/28 
f 11/11/11 18/16/18 12/2/12 
f 18/16/18 11/11/11 29/25/29 
f 30/16/30 29/25/29 11/11/11 
f 29/25/29 30/16/30 31/26/31 
f 32/18/32 31/26/31 30/16/30 
f 31/26/31 32/18/32 33/27/33 
f 34/28/34 33/27/33 32/18/32 
f 33/27/33 34/28/34 35/29/35 
f 36/30/36 35/29/35 34/28/34 
f 21/18/21 37/28/37 23/20/23 
f 37/28/37 21/18/21 38/27/38 
f 39/26/39 38/27/38 21/18/21 
f 38/27/38 39/26/39 40/31/40 
f 41/32/41 40/31/40 39/26/39 
f 40/31/40 41/32/41 31/26/31 
f 29/25/29 31/26/31 41/32/41 
f 5/5/5 42/17/42 4/4/4 
f 42/17/42 5/5/5 43/19/43 
f 14/13/14 43/19/43 5/5/5 
f 43/19/43 14/13/14 24/21/24 
f 16/5/16 24/21/24 14/13/14 
f 24/21/24 16/5/16 22/19/22 
f 20/17/20 22/19/22 16/5/16 
f 23/20/23 27/23/27 25/22/25 
f 27/23/27 23/20/23 44/24/44 
f 37/28/37 44/24/44 23/20/23 
f 44/24/44 37/28/37 45/33/45 
f 46/30/46 45/33/45 37/28/37 
f 32/18/32 26/20/26 34/28/34 
f 26/20/26 32/18/32 42/17/42 
f 30/16/30 42/17/42 32/18/32 
f 42/17/42 30/16/30 4/4/4 
f 2/2/2 4/4/4 30/16/30 
f 33/27/33 40/31/40 31/26/31 
f 40/31/40 33/27/33 47/34/47 
f 35/29/35 47/34/47 33/27/33 
f 39/26/39 29/25/29 41/32/41 
f 29/25/29 39/26/39 18/16/18 
f 21/18/21 18/16/18 39/26/39 
f 34/28/34 48/33/48 36/30/36 
f 48/33/48 34/28/34 28/24/28 
f 26/20/26 28/24/28 34/28/34 
f 37/28/37 49/29/49 46/30/46 
f 49/29/49 37/28/37 38/27/38 
f 47/34/47 38/27/38 40/31/40 
f 38/27/38 47/34/47 49/29/49 
f 26/20/26 43/19/43 24/21/24 
f 43/19/43 26/20/26 42/17/42 
f 11/11/11 2/2/2 30/16/30 
f 16/5/16 19/4/19 20/17/20 
f 50/11/50 51/10/51 52/2/52 
f 51/10/51 50/11/50 53/12/53 
f 54/3/54 53/12/53 50/11/50 
f 53/12/53 54/3/54 55/35/55 
f 56/1/56 55/35/55 54/3/54 
f 55/35/55 56/1/56 57/9/57 
f 58/7/58 57/9/57 56/1/56 
f 57/9/57 58/7/58 59/9/59 
f 60/36/60 59/9/59 58/7/58 
f 59/9/59 60/36/60 9/9/9 
f 7/7/7 9/9/9 60/36/60 
f 55/35/55 61/37/61 53/12/53 
f 61/37/61 55/35/55 62/38/62 
f 63/39/63 62/38/62 55/35/55 
f 62/38/62 63/39/63 64/37/64 
f 65/35/65 64/37/64 63/39/63 
f 64/37/64 65/35/65 13/12/13 
f 3/3/66 13/12/13 65/35/65 
f 60/36/60 8/8/8 7/7/7 
f 8/8/8 60/36/60 66/8/67 
f 58/7/58 66/8/67 60/36/60 
f 66/8/67 58/7/58 67/8/68 
f 68/6/69 67/8/68 58/7/58 
f 69/14/70 70/13/71 71/5/72 
f 70/13/71 69/14/70 68/6/69 
f 72/15/73 68/6/69 69/14/70 
f 68/6/69 72/15/73 67/8/68 
f 68/6/69 73/5/74 70/13/71 
f 73/5/74 68/6/69 74/4/75 
f 56/1/56 74/4/75 68/6/69 
f 74/4/75 56/1/56 54/3/54 
f 65/35/65 1/1/76 3/3/66 
f 1/1/76 65/35/65 9/9/9 
f 59/9/59 9/9/9 65/35/65 
f 57/9/57 63/39/63 55/35/55 
f 63/39/63 57/9/57 59/9/59 
f 54/3/54 75/2/77 74/4/75 
f 75/2/77 54/3/54 50/11/50 
f 65/35/65 63/39/63 59/9/59 
f 58/7/58 56/1/56 68/6/69 
f 76/17/78 77/20/79 78/19/80 
f 77/20/79 76/17/78 79/18/81 
f 80/16/82 79/18/81 76/17/78 
f 79/18/81 80/16/82 81/26/83 
f 82/25/29 81/26/83 80/16/82 
f 81/26/83 82/25/29 83/32/84 
f 84/26/85 83/32/84 82/25/29 
f 83/32/84 84/26/85 85/31/86 
f 86/27/87 85/31/86 84/26/85 
f 85/31/86 86/27/87 87/34/88 
f 88/29/89 87/34/88 86/27/87 
f 80/16/82 75/2/77 50/11/50 
f 75/2/77 80/16/82 74/4/75 
f 76/17/78 74/4/75 80/16/82 
f 74/4/75 76/17/78 73/5/74 
f 78/19/80 73/5/74 76/17/78 
f 73/5/74 78/19/80 89/21/90 
f 77/20/79 89/21/90 78/19/80 
f 89/21/90 77/20/79 90/22/91 
f 91/23/92 90/22/91 77/20/79 
f 90/22/91 91/23/92 92/24/93 
f 93/16/94 84/26/85 82/25/29 
f 84/26/85 93/16/94 94/18/95 
f 95/17/96 94/18/95 93/16/94 
f 94/18/95 95/17/96 96/19/97 
f 71/5/72 96/19/97 95/17/96 
f 96/19/97 71/5/72 70/13/71 
f 94/18/95 86/27/87 84/26/85 
f 86/27/87 94/18/95 97/28/98 
f 98/20/99 97/28/98 94/18/95 
f 97/28/98 98/20/99 92/24/93 
f 90/22/91 92/24/93 98/20/99 
f 50/11/50 82/25/29 80/16/82 
f 82/25/29 50/11/50 93/16/94 
f 52/2/52 93/16/94 50/11/50 
f 93/16/94 52/2/52 99/4/100 
f 85/31/86 81/26/83 83/32/84 
f 81/26/83 85/31/86 100/27/101 
f 87/34/88 100/27/101 85/31/86 
f 100/27/101 87/34/88 101/29/102 
f 100/27/101 79/18/81 81/26/83 
f 79/18/81 100/27/101 102/28/103 
f 101/29/102 102/28/103 100/27/101 
f 102/28/103 101/29/102 103/30/104 
f 98/20/99 89/21/90 90/22/91 
f 89/21/90 98/20/99 96/19/97 
f 94/18/95 96/19/97 98/20/99 
f 104/24/105 79/18/81 102/28/103 
f 79/18/81 104/24/105 77/20/79 
f 91/23/92 77/20/79 104/24/105 
f 99/4/100 95/17/96 93/16/94 
f 95/17/96 99/4/100 71/5/72 
f 105/33/106 102/28/103 103/30/104 
f 102/28/103 105/33/106 104/24/105 
f 106/33/107 97/28/98 92/24/93 
f 97/28/98 106/33/107 107/30/108 
f 88/29/89 97/28/98 107/30/108 
f 97/28/98 88/29/89 86/27/87 
f 70/13/71 89/21/90 96/19/97 
f 89/21/90 70/13/71 73/5/74 
f 108/40/109 104/24/105 105/33/106 
f 104/24/105 108/40/109 91/23/92 
f 92/24/93 91/23/92 108/40/109 
f 108/40/109 106/33/107 92/24/93 
f 109/40/110 44/24/111 45/33/112 
f 44/24/111 109/40/110 27/23/113 
f 28/24/114 27/23/113 109/40/110 
f 109/40/110 48/33/115 28/24/114 
# 184 faces

