# 3ds Max Wavefront OBJ Exporter v0.99 - (c)2007 guruware
# File Created: 20.04.2025 16:35:46

mtllib vaina.mtl

#
# object vaina
#

v  0.2811 -0.4723 -0.0000
v  -0.0000 0.9082 -0.1234
v  0.2652 0.9082 0.0000
v  0.0000 -0.4723 -0.1370
v  0.0000 -0.6903 -0.0959
v  -0.2811 -0.4723 -0.0000
v  -0.1821 -0.7028 -0.0000
v  0.0000 -0.6903 0.0959
v  0.0000 -0.9082 -0.0000
v  0.1821 -0.7028 -0.0000
v  0.0000 -0.4723 0.1370
v  -0.0000 0.9082 0.1234
v  -0.0000 0.9082 0.0000
v  -0.2652 0.9082 0.0000
# 14 vertices

vn 0.9859 -0.1671 -0.0007
vn 0.0013 0.0079 -1.0000
vn 0.9999 0.0156 -0.0013
vn 0.0006 -0.0867 -0.9962
vn -0.0000 -0.2890 -0.9573
vn -0.9859 -0.1671 0.0007
vn -0.8647 -0.5022 -0.0000
vn -0.0000 -0.2890 0.9573
vn -0.0000 -1.0000 -0.0000
vn 0.8647 -0.5022 -0.0000
vn -0.0006 -0.0867 0.9962
vn -0.0013 0.0079 1.0000
vn 0.0000 1.0000 0.0000
vn 0.0000 1.0000 -0.0000
vn -0.9999 0.0156 0.0013
# 15 vertex normals

vt 0.0469 0.2188 0.0000
vt 1.0000 0.8125 0.0000
vt 0.0469 0.8125 0.0000
vt 1.0000 0.2188 0.0000
vt 1.0000 0.1289 0.0000
vt 0.3242 0.1250 0.0000
vt 1.0000 0.0312 0.0000
vt 0.9883 1.0000 0.0000
vt 0.0352 1.0000 0.0000
vt 0.9883 0.8633 0.0000
# 10 texture coords

o vaina
g vaina
usemtl link_Material_002
s 1
f 1/1/1 2/2/2 3/3/3 
f 2/2/2 1/1/1 4/4/4 
f 4/4/4 1/1/1 5/5/5 
f 4/4/4 5/5/5 6/1/6 
f 7/6/7 6/1/6 5/5/5 
f 6/1/6 7/6/7 8/5/8 
f 9/7/9 8/5/8 7/6/7 
f 8/5/8 9/7/9 10/6/10 
f 5/5/5 10/6/10 9/7/9 
f 5/5/5 1/1/1 10/6/10 
f 1/1/1 8/5/8 10/6/10 
f 8/5/8 1/1/1 11/4/11 
f 11/4/11 1/1/1 3/3/3 
f 11/4/11 3/3/3 12/2/12 
f 13/8/13 14/9/13 12/10/14 
f 14/9/13 13/8/13 2/10/13 
f 3/9/13 2/10/13 13/8/13 
f 14/3/15 6/1/6 12/2/12 
f 6/1/6 14/3/15 4/4/4 
f 2/2/2 4/4/4 14/3/15 
f 11/4/11 6/1/6 8/5/8 
f 6/1/6 11/4/11 12/2/12 
f 3/9/13 13/8/13 12/10/14 
f 5/5/5 9/7/9 7/6/7 
# 24 faces

