# 3ds Max Wavefront OBJ Exporter v0.99 - (c)2007 guruware
# File Created: 06.05.2025 17:35:54

mtllib escalera.mtl

#
# object StraightStair001
#

v  6.2902 -0.7504 1.6154
v  -6.2936 -0.7504 1.6193
v  -6.2936 -1.5009 1.6193
v  6.2902 -1.5009 1.6154
v  -6.2928 -0.7504 0.8106
v  6.2911 -0.7504 0.8067
v  6.2911 -1.5009 0.8067
v  -6.2928 -1.5009 0.8106
v  6.2911 -0.0000 0.8067
v  -6.2928 -0.0000 0.8106
v  -6.2919 -0.0000 0.0020
v  6.2919 -0.0000 -0.0020
v  6.2919 -0.7504 -0.0020
v  -6.2919 -0.7504 0.0020
v  6.2919 0.7504 -0.0020
v  -6.2919 0.7504 0.0020
v  -6.2911 0.7504 -0.8067
v  6.2928 0.7504 -0.8106
v  6.2928 -0.0000 -0.8106
v  -6.2911 -0.0000 -0.8067
v  6.2928 1.5009 -0.8106
v  -6.2911 1.5009 -0.8067
v  -6.2902 1.5009 -1.6154
v  6.2936 1.5009 -1.6193
v  6.2936 0.7504 -1.6193
v  -6.2902 0.7504 -1.6154
# 26 vertices

vn -0.0011 0.0000 1.0000
vn 0.0011 0.0000 -1.0000
vn 0.0000 1.0000 -0.0000
vn 0.0000 -1.0000 -0.0000
vn -1.0000 0.0000 0.0003
vn 1.0000 0.0000 -0.0003
# 6 vertex normals

vt 2.8094 -1.7683 0.7500
vt -1.7816 -1.7683 0.7500
vt -1.7816 -1.7683 0.5000
vt 2.8094 -1.7683 0.5000
vt -1.7816 -0.6205 0.7500
vt 2.8094 -0.6205 0.7500
vt 2.8094 -0.6205 0.5000
vt -1.7816 -0.6205 0.5000
vt 2.8094 -0.6205 1.0000
vt -1.7816 -0.6205 1.0000
vt -1.7816 0.5272 1.0000
vt 2.8094 0.5272 1.0000
vt 2.8094 0.5272 0.7500
vt -1.7816 0.5272 0.7500
vt 2.8094 0.5272 1.2500
vt -1.7816 0.5272 1.2500
vt -1.7816 1.6750 1.2500
vt 2.8094 1.6750 1.2500
vt 2.8094 1.6750 1.0000
vt -1.7816 1.6750 1.0000
vt 2.8094 1.6750 1.5000
vt -1.7816 1.6750 1.5000
vt -1.7816 2.8228 1.5000
vt 2.8094 2.8228 1.5000
vt 2.8094 2.8228 1.2500
vt -1.7816 2.8228 1.2500
# 26 texture coords

o StraightStair001
g StraightStair001
usemtl pin
s 1
f 1/1/1 2/2/1 3/3/1 
f 3/3/1 4/4/1 1/1/1 
f 5/5/2 6/6/2 7/7/2 
f 7/7/2 8/8/2 5/5/2 
s 2
f 6/6/3 5/5/3 2/2/3 
f 2/2/3 1/1/3 6/6/3 
f 8/8/4 7/7/4 4/4/4 
f 4/4/4 3/3/4 8/8/4 
s 4
f 5/5/5 8/8/5 3/3/5 
f 3/3/5 2/2/5 5/5/5 
f 7/7/6 6/6/6 1/1/6 
f 1/1/6 4/4/6 7/7/6 
s 1
f 9/9/1 10/10/1 5/5/1 
f 5/5/1 6/6/1 9/9/1 
f 11/11/2 12/12/2 13/13/2 
f 13/13/2 14/14/2 11/11/2 
s 2
f 12/12/3 11/11/3 10/10/3 
f 10/10/3 9/9/3 12/12/3 
f 14/14/4 13/13/4 6/6/4 
f 6/6/4 5/5/4 14/14/4 
s 4
f 11/11/5 14/14/5 5/5/5 
f 5/5/5 10/10/5 11/11/5 
f 13/13/6 12/12/6 9/9/6 
f 9/9/6 6/6/6 13/13/6 
s 1
f 15/15/1 16/16/1 11/11/1 
f 11/11/1 12/12/1 15/15/1 
f 17/17/2 18/18/2 19/19/2 
f 19/19/2 20/20/2 17/17/2 
s 2
f 18/18/3 17/17/3 16/16/3 
f 16/16/3 15/15/3 18/18/3 
f 20/20/4 19/19/4 12/12/4 
f 12/12/4 11/11/4 20/20/4 
s 4
f 17/17/5 20/20/5 11/11/5 
f 11/11/5 16/16/5 17/17/5 
f 19/19/6 18/18/6 15/15/6 
f 15/15/6 12/12/6 19/19/6 
s 1
f 21/21/1 22/22/1 17/17/1 
f 17/17/1 18/18/1 21/21/1 
f 23/23/2 24/24/2 25/25/2 
f 25/25/2 26/26/2 23/23/2 
s 2
f 24/24/3 23/23/3 22/22/3 
f 22/22/3 21/21/3 24/24/3 
f 26/26/4 25/25/4 18/18/4 
f 18/18/4 17/17/4 26/26/4 
s 4
f 23/23/5 26/26/5 17/17/5 
f 17/17/5 22/22/5 23/23/5 
f 25/25/6 24/24/6 21/21/6 
f 21/21/6 18/18/6 25/25/6 
# 48 faces

